# xmcd
#
# Track frame offsets:
#	150
#	18965
#	33005
#	50352
#
# Disc length: 887 seconds
#
# Revision: 0
# Processed by: cddbd v1.5.1PL0 Copyright (c) Steve Scherf et al.
# Submitted via: dBpowerAMP V4.0
#
DISCID=21037504
DTITLE=Callahan's Bullitt - Wanted
DYEAR=2002
DGENRE=Country
TTITLE0=Morricone Hotel
TTITLE1=The Ballad of Tuco
TTITLE2=Wanted
TTITLE3=The Sheriff
EXTD=
EXTT0=
EXTT1=
EXTT2=
EXTT3=
PLAYORDER=
